<svg width="269" height="240" viewBox="0 0 269 240" fill="none" xmlns="http://www.w3.org/2000/svg">
<path d="M268 150L262.348 155.621" stroke="#04D361" stroke-width="2" stroke-miterlimit="10" stroke-linecap="round" stroke-linejoin="round"/>
<path d="M268 155.621L262.348 150" stroke="#04D361" stroke-width="2" stroke-miterlimit="10" stroke-linecap="round" stroke-linejoin="round"/>
<path d="M9.78674 150.618L1.79359 150.618" stroke="#04D361" stroke-width="2" stroke-miterlimit="10" stroke-linecap="round" stroke-linejoin="round"/>
<path d="M5.79114 154.603L5.79114 146.645" stroke="#04D361" stroke-width="2" stroke-miterlimit="10" stroke-linecap="round" stroke-linejoin="round"/>
<path d="M190.205 23.6612C187.529 23.6612 185.348 21.5018 185.348 18.8306C185.348 16.1686 187.519 14 190.205 14C192.882 14 195.063 16.1593 195.063 18.8306C195.054 21.5018 192.882 23.6612 190.205 23.6612Z" stroke="#04D361" stroke-width="2" stroke-miterlimit="10" stroke-linecap="round" stroke-linejoin="round"/>
<path d="M95.2054 238.661C92.5286 238.661 90.3478 236.502 90.3478 233.831C90.3478 231.169 92.5192 229 95.2054 229C97.8823 229 100.063 231.159 100.063 233.831C100.054 236.502 97.8823 238.661 95.2054 238.661Z" stroke="#04D361" stroke-width="2" stroke-miterlimit="10" stroke-linecap="round" stroke-linejoin="round"/>
<path d="M55.3887 1.74977C55.3887 2.716 56.1764 3.49929 57.148 3.49929C58.1197 3.49929 58.9073 2.716 58.9073 1.74977C58.9073 0.783544 58.1197 0.000259365 57.148 0.000259323C56.1764 0.00025928 55.3887 0.783544 55.3887 1.74977Z" fill="#9871F5"/>
<path d="M55.3887 13.9703C55.3887 14.9365 56.1764 15.7198 57.148 15.7198C58.1197 15.7198 58.9073 14.9365 58.9073 13.9703C58.9073 13.0041 58.1197 12.2208 57.148 12.2208C56.1764 12.2208 55.3887 13.0041 55.3887 13.9703Z" fill="#9871F5"/>
<path d="M55.3887 26.1799C55.3887 27.1461 56.1764 27.9294 57.148 27.9294C58.1197 27.9294 58.9073 27.1461 58.9073 26.1799C58.9073 25.2136 58.1197 24.4304 57.148 24.4304C56.1764 24.4304 55.3887 25.2136 55.3887 26.1799Z" fill="#9871F5"/>
<path d="M55.3887 38.4002C55.3887 39.3664 56.1764 40.1497 57.148 40.1497C58.1197 40.1497 58.9073 39.3664 58.9073 38.4002C58.9073 37.434 58.1197 36.6507 57.148 36.6507C56.1764 36.6507 55.3887 37.434 55.3887 38.4002Z" fill="#9871F5"/>
<path d="M55.3887 50.6107C55.3887 51.5769 56.1764 52.3602 57.148 52.3602C58.1197 52.3602 58.9073 51.5769 58.9073 50.6107C58.9073 49.6445 58.1197 48.8612 57.148 48.8612C56.1764 48.8612 55.3887 49.6445 55.3887 50.6107Z" fill="#9871F5"/>
<path d="M43.1087 1.7495C43.1087 2.71573 43.8964 3.49901 44.868 3.49901C45.8396 3.49901 46.6273 2.71573 46.6273 1.7495C46.6273 0.783269 45.8396 -1.52932e-05 44.868 -1.53357e-05C43.8964 -1.53782e-05 43.1087 0.783269 43.1087 1.7495Z" fill="#9871F5"/>
<path d="M43.1087 13.9702C43.1087 14.9364 43.8964 15.7197 44.868 15.7197C45.8396 15.7197 46.6273 14.9364 46.6273 13.9702C46.6273 13.004 45.8396 12.2207 44.868 12.2207C43.8964 12.2207 43.1087 13.004 43.1087 13.9702Z" fill="#9871F5"/>
<path d="M43.1087 26.1802C43.1087 27.1464 43.8964 27.9297 44.868 27.9297C45.8396 27.9297 46.6273 27.1464 46.6273 26.1802C46.6273 25.2139 45.8396 24.4306 44.868 24.4306C43.8964 24.4306 43.1087 25.2139 43.1087 26.1802Z" fill="#9871F5"/>
<path d="M43.1087 38.4004C43.1087 39.3666 43.8964 40.1499 44.868 40.1499C45.8396 40.1499 46.6273 39.3666 46.6273 38.4004C46.6273 37.4341 45.8396 36.6509 44.868 36.6509C43.8964 36.6509 43.1087 37.4341 43.1087 38.4004Z" fill="#9871F5"/>
<path d="M43.1087 50.6108C43.1087 51.577 43.8964 52.3603 44.868 52.3603C45.8396 52.3603 46.6273 51.577 46.6273 50.6108C46.6273 49.6446 45.8396 48.8613 44.868 48.8613C43.8964 48.8613 43.1087 49.6446 43.1087 50.6108Z" fill="#9871F5"/>
<path d="M30.8195 1.7495C30.8195 2.71573 31.6072 3.49901 32.5788 3.49901C33.5505 3.49901 34.3381 2.71573 34.3381 1.7495C34.3381 0.783269 33.5505 -1.52932e-05 32.5788 -1.53357e-05C31.6072 -1.53782e-05 30.8195 0.783269 30.8195 1.7495Z" fill="#9871F5"/>
<path d="M30.8195 13.9702C30.8195 14.9364 31.6072 15.7197 32.5788 15.7197C33.5505 15.7197 34.3381 14.9364 34.3381 13.9702C34.3381 13.004 33.5505 12.2207 32.5788 12.2207C31.6072 12.2207 30.8195 13.004 30.8195 13.9702Z" fill="#9871F5"/>
<path d="M30.8195 26.1802C30.8195 27.1464 31.6072 27.9297 32.5788 27.9297C33.5505 27.9297 34.3381 27.1464 34.3381 26.1802C34.3381 25.2139 33.5505 24.4306 32.5788 24.4306C31.6072 24.4306 30.8195 25.2139 30.8195 26.1802Z" fill="#9871F5"/>
<path d="M30.8195 38.4004C30.8195 39.3666 31.6072 40.1499 32.5788 40.1499C33.5505 40.1499 34.3381 39.3666 34.3381 38.4004C34.3381 37.4341 33.5505 36.6509 32.5788 36.6509C31.6072 36.6509 30.8195 37.4341 30.8195 38.4004Z" fill="#9871F5"/>
<path d="M30.8195 50.6108C30.8195 51.577 31.6072 52.3603 32.5788 52.3603C33.5505 52.3603 34.3381 51.577 34.3381 50.6108C34.3381 49.6446 33.5505 48.8613 32.5788 48.8613C31.6072 48.8613 30.8195 49.6446 30.8195 50.6108Z" fill="#9871F5"/>
<path d="M18.5397 1.7495C18.5397 2.71573 19.3274 3.49901 20.299 3.49901C21.2707 3.49901 22.0583 2.71573 22.0583 1.7495C22.0583 0.783269 21.2707 -1.52932e-05 20.299 -1.53357e-05C19.3274 -1.53782e-05 18.5397 0.783269 18.5397 1.7495Z" fill="#9871F5"/>
<path d="M18.5397 13.9702C18.5397 14.9364 19.3274 15.7197 20.299 15.7197C21.2707 15.7197 22.0583 14.9364 22.0583 13.9702C22.0583 13.004 21.2707 12.2207 20.299 12.2207C19.3274 12.2207 18.5397 13.004 18.5397 13.9702Z" fill="#9871F5"/>
<path d="M18.5397 26.1802C18.5397 27.1464 19.3274 27.9297 20.299 27.9297C21.2707 27.9297 22.0583 27.1464 22.0583 26.1802C22.0583 25.2139 21.2707 24.4306 20.299 24.4306C19.3274 24.4306 18.5397 25.2139 18.5397 26.1802Z" fill="#9871F5"/>
<path d="M18.5397 38.4004C18.5397 39.3666 19.3274 40.1499 20.299 40.1499C21.2707 40.1499 22.0583 39.3666 22.0583 38.4004C22.0583 37.4341 21.2707 36.6509 20.299 36.6509C19.3274 36.6509 18.5397 37.4341 18.5397 38.4004Z" fill="#9871F5"/>
<path d="M18.5397 50.6108C18.5397 51.577 19.3274 52.3603 20.299 52.3603C21.2707 52.3603 22.0583 51.577 22.0583 50.6108C22.0583 49.6446 21.2707 48.8613 20.299 48.8613C19.3274 48.8613 18.5397 49.6446 18.5397 50.6108Z" fill="#9871F5"/>
<path d="M249.829 208.75C249.829 209.716 250.617 210.499 251.588 210.499C252.56 210.499 253.348 209.716 253.348 208.75C253.348 207.784 252.56 207 251.588 207C250.617 207 249.829 207.784 249.829 208.75Z" fill="#9871F5"/>
<path d="M249.829 220.96C249.829 221.926 250.617 222.709 251.588 222.709C252.56 222.709 253.348 221.926 253.348 220.96C253.348 219.994 252.56 219.21 251.588 219.21C250.617 219.21 249.829 219.994 249.829 220.96Z" fill="#9871F5"/>
<path d="M249.829 233.18C249.829 234.146 250.617 234.929 251.588 234.929C252.56 234.929 253.348 234.146 253.348 233.18C253.348 232.213 252.56 231.43 251.588 231.43C250.617 231.43 249.829 232.213 249.829 233.18Z" fill="#9871F5"/>
<path d="M237.54 208.75C237.54 209.716 238.327 210.499 239.299 210.499C240.271 210.499 241.058 209.716 241.058 208.75C241.058 207.783 240.271 207 239.299 207C238.327 207 237.54 207.783 237.54 208.75Z" fill="#9871F5"/>
<path d="M237.54 220.96C237.54 221.926 238.327 222.709 239.299 222.709C240.271 222.709 241.058 221.926 241.058 220.96C241.058 219.994 240.271 219.21 239.299 219.21C238.327 219.21 237.54 219.994 237.54 220.96Z" fill="#9871F5"/>
<path d="M237.54 233.18C237.54 234.146 238.327 234.93 239.299 234.93C240.271 234.93 241.058 234.146 241.058 233.18C241.058 232.214 240.271 231.431 239.299 231.431C238.327 231.431 237.54 232.214 237.54 233.18Z" fill="#9871F5"/>
</svg>
